<?xml version="1.0" standalone="no"?><!DOCTYPE svg PUBLIC "-//W3C//DTD SVG 1.1//EN" "http://www.w3.org/Graphics/SVG/1.1/DTD/svg11.dtd"><svg t="1718786920375" class="icon" viewBox="0 0 1024 1024" version="1.1" xmlns="http://www.w3.org/2000/svg" p-id="11994" xmlns:xlink="http://www.w3.org/1999/xlink" width="200" height="200"><path d="M320 409.6c-57.6 0-108.8 12.8-160 38.4V256c0-38.4-32-64-76.8-64S12.8 217.6 12.8 256v480C25.6 896 160 1017.6 320 1017.6c166.4 0 307.2-134.4 307.2-307.2S486.4 409.6 320 409.6z m0 473.6c-83.2 0-153.6-57.6-166.4-134.4 0-12.8-6.4-25.6-6.4-38.4 0-25.6 6.4-51.2 12.8-70.4C192 576 249.6 537.6 320 537.6c96 0 172.8 76.8 172.8 172.8S416 883.2 320 883.2zM761.6 595.2c-32 0-57.6-25.6-57.6-57.6 0-128-108.8-230.4-236.8-230.4-32 6.4-57.6-19.2-57.6-51.2s25.6-57.6 57.6-57.6c185.6-6.4 352 147.2 352 339.2 0 32-25.6 57.6-57.6 57.6z" fill="#61dafb" p-id="11995"></path><path d="M953.6 595.2c-32 0-57.6-25.6-57.6-57.6 0-115.2-44.8-217.6-128-300.8-83.2-76.8-192-115.2-307.2-115.2-32 0-57.6-25.6-57.6-57.6s25.6-57.6 57.6-57.6c147.2 0 281.6 51.2 384 153.6 102.4 102.4 160 236.8 166.4 377.6 0 32-25.6 57.6-57.6 57.6z" fill="#61dafb" p-id="11996"></path></svg>